Coordinates
version=1
nRows=12
nColumns=33
inDegrees=yes

Units are S.I. units (second, meters, Newtons, ...)
Angles are in degrees.

endheader
time	ground_thorax_rot_x	ground_thorax_rot_y	ground_thorax_rot_z	ground_thorax_tx	ground_thorax_ty	ground_thorax_tz	clav_prot_r	clav_elev_r	scapula_abduction_r	scapula_elevation_r	scapula_upward_rot_r	scapula_winging_r	shoulder_elv_r	plane_of_elev_r	axial_rot_r	elbow_flexion_r	pro_sup_r	wrist_flex_r	wrist_dev_r	clav_prot_l	clav_elev_l	scapula_abduction_l	scapula_elevation_l	scapula_upward_rot_l	scapula_winging_l	shoulder_elv_l	plane_of_elev_l	axial_rot_l	elbow_flexion_l	pro_sup_l	wrist_flex_l	wrist_dev_l
      4.78000000	    -38.14540739	    -17.26920577	     20.32950927	    -67.21028330	    813.05799028	      2.61275071	      9.82469034	    -38.96791613	     45.00000000	    -45.00000000	     45.00000000	  -3620.70244746	  -4421.37692389	    -90.00000000	    -30.69538911	   2517.68210792	   -122.30222860	     17.14760815	     15.44822916	     18.32486294	     39.86717148	    -42.03255972	    -45.00000000	    -45.00000000	   3318.28256771	  -2812.23697983	     23.09430851	    -32.15193126	   1087.02560120	     12.71101891	     12.27296488	    -19.33439049
      4.79000000	    -38.25836455	    -17.53044570	     20.29479270	    -64.60305425	    809.89477923	      3.20001319	      9.82931959	    -38.95178744	     45.00000000	    -45.00000000	     45.00000000	  -3621.33935717	  -4422.19036920	    -90.00000000	    -29.85786336	   2517.18224325	   -121.88597595	     17.12390244	     15.23683910	     18.03734890	     39.76854243	    -41.91576775	    -45.00000000	    -45.00000000	   3317.89291795	  -2812.32909333	     23.14037162	    -32.15422984	   1086.90097034	     13.39550105	     12.05418783	    -19.07147130
      4.80000000	    -38.35203894	    -17.74834397	     20.23545969	    -62.29630123	    807.07296125	      3.72779685	      9.72550973	    -38.88275686	     45.00000000	    -45.00000000	     45.00000000	  -3621.76584812	  -4422.44191236	    -90.00000000	    -29.58168451	   2517.05614553	   -121.41879508	     17.01195693	     14.98509652	     18.24539464	     39.85956583	    -41.93648560	    -45.00000000	    -45.00000000	   3317.50348350	  -2812.51038832	     23.13938596	    -31.91230260	   1086.63019531	     14.30429540	     11.89090608	    -18.97609097
      4.81000000	    -38.42877172	    -17.91605210	     20.09336488	    -60.31751522	    804.60339737	      4.20008589	      9.66203939	    -38.82945915	     45.00000000	    -45.00000000	     45.00000000	  -3622.13301843	  -4422.70585480	    -90.00000000	    -29.29406268	   2516.86354759	   -120.89410240	     16.93013865	     14.75302020	     18.29862759	     39.92585553	    -41.94216854	    -45.00000000	    -45.00000000	   3317.15519010	  -2812.66038331	     23.19505077	    -31.54660778	   1086.44523535	     15.36105080	     11.70828003	    -18.93896735
      4.82000000	    -38.51838793	    -18.12181914	     19.92922738	    -58.69223777	    802.48493411	      4.60210298	      9.56725170	    -38.78046253	     45.00000000	    -45.00000000	     45.00000000	  -3622.46315647	  -4422.91584653	    -90.00000000	    -29.05984025	   2516.72099084	   -120.26814170	     16.87316601	     14.55083445	     18.49888969	     40.05939535	    -41.98265079	    -45.00000000	    -45.00000000	   3316.85520502	  -2812.85678835	     23.24101743	    -31.11238383	   1086.18938411	     16.58338043	     11.53482059	    -18.92134019
      4.83000000	    -38.56682422	    -18.33805049	     19.86304856	    -57.44211766	    800.70789831	      4.92405763	      9.67924675	    -38.73091403	     45.00000000	    -45.00000000	     45.00000000	  -3622.74773022	  -4423.23033439	    -90.00000000	    -28.72754776	   2516.52517997	   -119.63790777	     16.41290933	     14.04308420	     17.87481384	     39.50291484	    -41.80953309	    -44.97186294	    -45.00000000	   3316.17807918	  -2812.37548082	     22.91508336	    -30.66943885	   1086.13128613	     17.57186377	     11.40423677	    -18.97535832
      4.84000000	    -38.65615262	    -18.22449719	     19.49425226	    -56.56711251	    799.23033182	      5.16808775	      9.45715025	    -38.62501982	     45.00000000	    -45.00000000	     45.00000000	  -3622.83430016	  -4423.25884439	    -90.00000000	    -28.68091933	   2516.39747736	   -118.92841979	     16.65208357	     14.08275150	     18.42052450	     39.71731756	    -42.46483990	    -44.58406027	    -45.00000000	   3316.68142519	  -2812.83854142	     23.14181005	    -30.37913754	   1085.86079223	     18.71829961	     11.39398128	    -19.00546343
      4.85000000	    -38.68621872	    -18.32466445	     19.26482134	    -56.07666103	    798.02591045	      5.33906935	      9.45703215	    -38.60383752	     45.00000000	    -45.00000000	     45.00000000	  -3622.99530573	  -4423.34280105	    -90.00000000	    -28.57913238	   2516.32184762	   -118.03675453	     16.57021623	     13.89863340	     18.45899814	     39.58814149	    -42.42899906	    -44.42088835	    -45.00000000	   3316.58186989	  -2812.75563570	     23.29089225	    -29.69181475	   1085.71830583	     19.75967291	     11.21098674	    -18.99832709
      4.86000000	    -38.78131024	    -18.24656079	     18.85871405	    -55.96701491	    797.05207301	      5.44959418	      9.35332152	    -38.53384095	     45.00000000	    -45.00000000	     45.00000000	  -3623.06157923	  -4423.40608344	    -90.00000000	    -28.49812547	   2516.27055748	   -117.01562066	     16.69389943	     13.87112179	     18.68396022	     39.60413887	    -42.78954264	    -44.28793849	    -45.00000000	   3316.79120990	  -2812.99702666	     23.44296185	    -29.06935376	   1085.63118930	     20.77472422	     11.26712419	    -19.08158791
      4.87000000	    -38.82278342	    -18.32014916	     18.59948321	    -56.23218885	    796.28426711	      5.51292780	      9.35649298	    -38.55104888	     45.00000000	    -45.00000000	     45.00000000	  -3623.16855485	  -4423.41779372	    -90.00000000	    -28.46878856	   2516.08652422	   -115.86618955	     16.66079369	     13.70368646	     18.76594764	     39.67261086	    -42.62868003	    -44.23360239	    -45.00000000	   3316.74396299	  -2812.94067012	     23.70364732	    -28.16564510	   1085.52983671	     21.59199214	     11.11371006	    -19.06252460
      4.88000000	    -38.92159664	    -18.33100132	     18.22948362	    -56.86250219	    795.67396864	      5.54523375	      9.31888691	    -38.49299586	     45.00000000	    -45.00000000	     45.00000000	  -3623.20509483	  -4423.52019846	    -90.00000000	    -28.34761998	   2516.00208809	   -114.55043765	     16.84883327	     13.69373880	     18.63732108	     39.81336696	    -42.84240191	    -44.16029051	    -45.00000000	   3316.83103844	  -2812.93991121	     23.60332579	    -27.79144762	   1085.56936213	     22.40119503	     11.29460673	    -19.21469045
      4.89000000	    -38.95581268	    -18.17744335	     17.85533070	    -57.83731641	    795.20325852	      5.55779710	      9.34420015	    -38.50235873	     45.00000000	    -45.00000000	     45.00000000	  -3623.30420676	  -4423.48005610	    -90.00000000	    -28.36782286	   2515.66309208	   -113.11813737	     16.89856051	     13.52634205	     18.66475555	     39.90790794	    -42.81232103	    -44.16925586	    -45.00000000	   3316.77367686	  -2812.93597602	     23.81432419	    -27.28288484	   1085.50433905	     22.93947235	     11.29121084	    -19.23371818
